<svg xmlns="http://www.w3.org/2000/svg" width="247" height="46.294" viewBox="0 0 247 46.294">
	<g id="Raggruppa_11" data-name="Raggruppa 11" transform="translate(-34 -43.706)">
		<path id="Icon_ionic-logo-dribbble" data-name="Icon ionic-logo-dribbble" d="M29.111,4.5C15.524,4.5,4.5,14.868,4.5,27.647S15.524,50.794,29.111,50.794,53.721,40.438,53.721,27.647,42.7,4.5,29.111,4.5ZM44.736,15.169a18.662,18.662,0,0,1,4.832,11.2,110.3,110.3,0,0,0-14,.157c-.538-1.278-1.09-2.532-1.692-3.737C38.788,20.787,42.57,18.159,44.736,15.169ZM29.111,8.358A21.214,21.214,0,0,1,42.2,12.794,25.536,25.536,0,0,1,32.11,19.5,47.325,47.325,0,0,0,24.06,8.973,21.811,21.811,0,0,1,29.111,8.358Zm-9.28,2.11a46.912,46.912,0,0,1,8.178,10.44,57.041,57.041,0,0,1-15.6,2.086c-1.077,0-2.128-.036-3.166-.1A19.58,19.58,0,0,1,19.83,10.468ZM8.64,26.731c1.166.048,2.346.072,3.538.06a64.194,64.194,0,0,0,17.638-2.58q.731,1.429,1.384,2.93a13.292,13.292,0,0,0-1.833.518C22.3,30.444,16.741,34.941,13.729,40.378A18.581,18.581,0,0,1,8.6,27.647C8.6,27.334,8.615,27.032,8.64,26.731Zm20.47,20.206a21.225,21.225,0,0,1-12.575-4.063A27.61,27.61,0,0,1,30.277,30.963a11.568,11.568,0,0,1,2.23-.639q1.1,2.857,1.961,5.931a66.358,66.358,0,0,1,1.9,9.416A21.458,21.458,0,0,1,29.111,46.937ZM40.2,43.862a65.9,65.9,0,0,0-1.91-9.512c-.436-1.567-.936-3.086-1.474-4.569a92.669,92.669,0,0,1,12.677,0A19.171,19.171,0,0,1,40.2,43.862Z" transform="translate(29.5 39.206)" fill="#707070"/>
		<text id="romeyouup" transform="translate(98 77)" fill="#707070" font-size="29" font-family="Leelawadee" letter-spacing="0.15em">
			<tspan x="0" y="0">romeyouup</tspan>
		</text>
	</g>
</svg>
