<svg xmlns="http://www.w3.org/2000/svg" width="867" height="140.762" viewBox="0 0 867 140.762">
	<text id="romeyouup" transform="translate(188 115.762)" fill="#fff" font-size="115" font-family="CenturyGothic, Century Gothic" letter-spacing="0.033em">
		<tspan x="0" y="0">romeyouup</tspan>
	</text>
	<path id="icons8-colosseo" d="M115.477,41.9l-10.432-8.83L88.878,29.639,70.7,4C24.91,4,2,20.042,2,43.977V120.3h8.587v-7.269c0-4,3.858-7.269,8.587-7.269s8.587,3.265,8.587,7.269V120.3h8.587v-10.9c0-5.991,5.8-10.9,12.881-10.9s12.881,4.912,12.881,10.9v10.9H70.7V105.761c0-8.007,7.715-14.537,17.174-14.537s17.174,6.53,17.174,14.537V120.3h8.587v-10.9c0-5.991,5.8-10.9,12.881-10.9s12.881,4.912,12.881,10.9v10.9h8.587v-7.269c0-4,3.857-7.269,8.587-7.269s8.587,3.265,8.587,7.269V120.3h8.587V69.418C173.742,56.641,149.357,45.795,115.477,41.9ZM27.761,86.056c-5.5.454-10.3.965-14.189,1.533H10.587v-10.9c0-4,3.858-7.269,8.587-7.269s8.587,3.265,8.587,7.269Zm0-36.343c-5.5.454-10.3.965-14.189,1.533H10.587v-10.9c0-4,3.858-7.269,8.587-7.269s8.587,3.265,8.587,7.269ZM62.11,84.3c-9.392.255-18.08.653-25.761,1.135V73.052c0-5.991,5.8-10.9,12.881-10.9s12.881,4.912,12.881,10.9Zm0-36.343c-9.392.255-18.08.653-25.761,1.135V36.709c0-5.991,5.8-10.9,12.881-10.9s12.881,4.912,12.881,10.9Zm42.936,36H70.7V69.418c0-8.007,7.715-14.537,17.174-14.537s17.174,6.53,17.174,14.537Zm34.348,1.476c-7.681-.511-16.369-.88-25.761-1.135V73.052c0-5.991,5.8-10.9,12.881-10.9s12.881,4.912,12.881,10.9Zm25.761,2.158H162.17c-3.891-.568-8.688-1.079-14.189-1.533v-9.37c0-4,3.857-7.269,8.587-7.269s8.587,3.265,8.587,7.269Z" transform="translate(-2 -4)" fill="#fff"/>
</svg>
