<?xml version="1.0" encoding="UTF-8"?>
<svg xmlns="http://www.w3.org/2000/svg" xmlns:xlink="http://www.w3.org/1999/xlink" viewBox="0 0 24 24" width="24px" height="24px">
	<g id="surface17233454">
		<path style=" stroke:none;fill-rule:nonzero;fill:rgb(50.196081%,50.196081%,50.196081%);fill-opacity:1;" d="M 5 3 C 3.90625 3 3 3.90625 3 5 L 3 19 C 3 20.09375 3.90625 21 5 21 L 19 21 C 20.09375 21 21 20.09375 21 19 L 21 5 C 21 3.90625 20.09375 3 19 3 Z M 5 8 L 19 8 L 19 19 L 5 19 Z M 7.992188 11 C 7.808594 11 7.621094 11.070312 7.480469 11.214844 C 7.195312 11.496094 7.195312 11.957031 7.480469 12.242188 L 9.238281 14 L 7.480469 15.757812 C 7.195312 16.042969 7.195312 16.5 7.480469 16.785156 C 7.761719 17.070312 8.222656 17.070312 8.507812 16.785156 L 10.78125 14.511719 C 11.0625 14.230469 11.0625 13.769531 10.78125 13.484375 L 8.507812 11.210938 C 8.367188 11.070312 8.179688 11 7.992188 11 Z M 12.75 15.5 C 12.335938 15.5 12 15.835938 12 16.25 C 12 16.664062 12.335938 17 12.75 17 L 16.25 17 C 16.664062 17 17 16.664062 17 16.25 C 17 15.835938 16.664062 15.5 16.25 15.5 Z M 12.75 15.5 "/>
	</g>
</svg>
