<?xml version="1.0" encoding="UTF-8"?>
<svg xmlns="http://www.w3.org/2000/svg" xmlns:xlink="http://www.w3.org/1999/xlink" viewBox="0 0 24 24" width="24px" height="24px">
<g id="surface1633521">
<path style=" stroke:none;fill-rule:nonzero;fill:rgb(100%,100%,100%);fill-opacity:1;" d="M 15 3 C 14.449219 3 14 3.449219 14 4 L 14 4.1875 C 14 4.292969 14.019531 4.402344 14.050781 4.503906 L 14.980469 7.238281 L 9.957031 15 L 9.894531 15 C 9.558594 13.417969 8.453125 12.128906 6.996094 11.492188 L 8.550781 9 L 11 9 L 11 7 L 5 7 L 5 9 L 6.195312 9 L 4.945312 11 C 2.226562 11.03125 0 13.273438 0 16 C 0 18.746094 2.253906 21 5 21 C 7.402344 21 9.429688 19.273438 9.898438 17 L 10.5 17 C 10.839844 17 11.15625 16.828125 11.339844 16.542969 L 15.796875 9.65625 L 16.503906 11.75 C 15.019531 12.605469 14 14.171875 14 16 C 14 18.746094 16.253906 21 19 21 C 21.746094 21 24 18.746094 24 16 C 24 13.382812 21.929688 11.265625 19.355469 11.070312 C 19.242188 11.027344 19.121094 11.003906 19 11 C 18.964844 11 18.933594 11.003906 18.898438 11.003906 C 18.867188 11.011719 18.832031 11.015625 18.800781 11.023438 C 18.746094 11.035156 18.691406 11.050781 18.640625 11.070312 C 18.558594 11.078125 18.484375 11.101562 18.402344 11.113281 L 16.332031 5 L 21 5 L 21 3 Z M 5 13 C 6.300781 13 7.402344 13.839844 7.816406 15 L 5 15 L 5 17 L 7.816406 17 C 7.402344 18.160156 6.300781 19 5 19 C 3.34375 19 2 17.65625 2 16 C 2 14.34375 3.34375 13 5 13 Z M 19.039062 13.003906 C 20.675781 13.027344 22 14.359375 22 16 C 22 17.65625 20.65625 19 19 19 C 17.34375 19 16 17.65625 16 16 C 16 15.046875 16.457031 14.207031 17.148438 13.65625 L 18.050781 16.320312 L 19.945312 15.679688 Z M 19.039062 13.003906 "/>
</g>
</svg>
