<?xml version="1.0" encoding="UTF-8"?>
<svg xmlns="http://www.w3.org/2000/svg" xmlns:xlink="http://www.w3.org/1999/xlink" viewBox="0 0 24 24" width="24px" height="24px">
<g id="surface34714324">
<path style=" stroke:none;fill-rule:nonzero;fill:rgb(100%,100%,100%);fill-opacity:1;" d="M 12 2 C 11.585938 2 11.25 2.335938 11.25 2.75 C 11.25 3.164062 11.585938 3.5 12 3.5 C 12.414062 3.5 12.75 3.164062 12.75 2.75 C 12.75 2.335938 12.414062 2 12 2 Z M 14.75 2.410156 C 14.375 2.40625 14.054688 2.675781 13.996094 3.046875 C 13.941406 3.421875 14.167969 3.777344 14.527344 3.882812 C 17.1875 4.710938 19.289062 6.8125 20.117188 9.472656 C 20.199219 9.730469 20.40625 9.921875 20.667969 9.980469 C 20.929688 10.039062 21.203125 9.957031 21.386719 9.757812 C 21.566406 9.5625 21.628906 9.285156 21.550781 9.027344 C 20.574219 5.894531 18.105469 3.425781 14.972656 2.449219 C 14.902344 2.425781 14.828125 2.414062 14.753906 2.410156 Z M 9.226562 2.414062 C 9.15625 2.417969 9.089844 2.429688 9.027344 2.449219 C 5.894531 3.425781 3.425781 5.894531 2.449219 9.027344 C 2.371094 9.285156 2.433594 9.5625 2.613281 9.757812 C 2.796875 9.957031 3.070312 10.039062 3.332031 9.980469 C 3.59375 9.921875 3.800781 9.730469 3.882812 9.472656 C 4.710938 6.8125 6.8125 4.710938 9.472656 3.882812 C 9.835938 3.773438 10.0625 3.414062 10 3.039062 C 9.9375 2.664062 9.605469 2.394531 9.226562 2.414062 Z M 16.179688 7.003906 C 16.105469 7.007812 16.035156 7.027344 15.964844 7.054688 C 15.515625 7.242188 11.539062 8.902344 10.21875 10.21875 C 8.902344 11.539062 7.242188 15.515625 7.058594 15.964844 C 6.941406 16.246094 7.007812 16.570312 7.222656 16.785156 C 7.367188 16.925781 7.554688 17 7.75 17 C 7.847656 17 7.949219 16.980469 8.046875 16.9375 C 8.507812 16.742188 12.585938 14.972656 13.78125 13.78125 C 14.972656 12.585938 16.742188 8.507812 16.941406 8.046875 C 17.058594 7.765625 17 7.441406 16.785156 7.222656 C 16.621094 7.058594 16.402344 6.984375 16.179688 7.003906 Z M 2.75 11.25 C 2.335938 11.25 2 11.585938 2 12 C 2 12.414062 2.335938 12.75 2.75 12.75 C 3.164062 12.75 3.5 12.414062 3.5 12 C 3.5 11.585938 3.164062 11.25 2.75 11.25 Z M 12 11.25 C 12.414062 11.25 12.75 11.585938 12.75 12 C 12.75 12.414062 12.414062 12.75 12 12.75 C 11.585938 12.75 11.25 12.414062 11.25 12 C 11.25 11.585938 11.585938 11.25 12 11.25 Z M 21.25 11.25 C 20.835938 11.25 20.5 11.585938 20.5 12 C 20.5 12.414062 20.835938 12.75 21.25 12.75 C 21.664062 12.75 22 12.414062 22 12 C 22 11.585938 21.664062 11.25 21.25 11.25 Z M 3.152344 13.992188 C 2.914062 13.992188 2.691406 14.109375 2.550781 14.304688 C 2.414062 14.5 2.375 14.746094 2.449219 14.972656 C 3.425781 18.105469 5.894531 20.574219 9.027344 21.550781 C 9.285156 21.628906 9.5625 21.566406 9.757812 21.386719 C 9.957031 21.203125 10.039062 20.929688 9.980469 20.667969 C 9.921875 20.40625 9.730469 20.199219 9.472656 20.117188 C 6.8125 19.289062 4.710938 17.1875 3.882812 14.527344 C 3.785156 14.203125 3.488281 13.984375 3.152344 13.992188 Z M 20.828125 13.992188 C 20.5 13.996094 20.210938 14.210938 20.117188 14.527344 C 19.289062 17.1875 17.1875 19.289062 14.527344 20.117188 C 14.269531 20.199219 14.078125 20.40625 14.019531 20.667969 C 13.960938 20.929688 14.042969 21.203125 14.242188 21.386719 C 14.4375 21.566406 14.714844 21.628906 14.972656 21.550781 C 18.105469 20.574219 20.574219 18.105469 21.550781 14.972656 C 21.625 14.742188 21.585938 14.492188 21.441406 14.296875 C 21.296875 14.101562 21.070312 13.988281 20.828125 13.992188 Z M 12 20.5 C 11.585938 20.5 11.25 20.835938 11.25 21.25 C 11.25 21.664062 11.585938 22 12 22 C 12.414062 22 12.75 21.664062 12.75 21.25 C 12.75 20.835938 12.414062 20.5 12 20.5 Z M 12 20.5 "/>
</g>
</svg>
