<?xml version="1.0" encoding="UTF-8"?>
<svg xmlns="http://www.w3.org/2000/svg" xmlns:xlink="http://www.w3.org/1999/xlink" viewBox="0 0 50 50" width="50px" height="50px">
<g id="surface21808794">
<path style=" stroke:none;fill-rule:nonzero;fill:rgb(100%,100%,100%);fill-opacity:1;" d="M 14.859375 9.488281 C 14.308594 8.351562 14 7.730469 14 6 C 14 5.679688 13.851562 5.378906 13.578125 5.191406 C 13.320312 5 12.988281 4.949219 12.679688 5.050781 C 11.011719 5.609375 9.191406 6.949219 7.628906 8.410156 C 12.078125 13.609375 16.730469 13.289062 19.550781 12.621094 C 17.621094 12.121094 15.578125 10.949219 14.859375 9.488281 Z M 49.050781 34.789062 C 48.941406 34.660156 48.789062 34.570312 48.628906 34.511719 L 41.539062 32.128906 L 39.859375 30.449219 L 39.519531 29.558594 L 37.730469 30.460938 L 37.199219 30.730469 C 37.050781 30.800781 36.898438 30.828125 36.75 30.828125 C 36.378906 30.828125 36.03125 30.628906 35.859375 30.28125 C 35.609375 29.789062 35.808594 29.191406 36.300781 28.941406 L 37.019531 28.578125 L 38.820312 27.679688 L 38.300781 26.269531 L 36.449219 27.050781 L 35.789062 27.328125 C 35.671875 27.390625 35.53125 27.410156 35.398438 27.410156 C 35.011719 27.410156 34.640625 27.191406 34.480469 26.800781 C 34.269531 26.300781 34.5 25.710938 35.011719 25.488281 L 35.75 25.179688 L 37.589844 24.398438 L 37.011719 22.859375 L 35.128906 23.539062 L 34.210938 23.871094 C 34.101562 23.910156 33.980469 23.929688 33.871094 23.929688 C 33.460938 23.929688 33.070312 23.679688 32.929688 23.269531 C 32.738281 22.75 33.011719 22.179688 33.53125 21.988281 L 34.429688 21.660156 L 36.308594 20.980469 L 35.730469 19.429688 L 33.851562 20.109375 L 33.019531 20.410156 C 32.898438 20.449219 32.789062 20.46875 32.679688 20.46875 C 32.269531 20.46875 31.878906 20.210938 31.738281 19.808594 C 31.550781 19.289062 31.820312 18.71875 32.339844 18.53125 L 33.148438 18.238281 L 35.03125 17.558594 L 34.421875 15.929688 L 34.421875 15.921875 L 34.410156 15.890625 C 34.410156 15.839844 34.421875 15.800781 34.410156 15.761719 C 34.410156 15.730469 33.949219 12.738281 34.910156 9.46875 C 35.078125 8.871094 34.941406 8.230469 34.53125 7.738281 C 34.089844 7.21875 33.429688 6.949219 32.769531 7.019531 C 29.371094 7.390625 24.851562 8.988281 24.660156 9.058594 C 24.519531 9.109375 24.398438 9.191406 24.289062 9.289062 L 22.949219 13.320312 C 22.839844 13.648438 22.570312 13.90625 22.230469 13.976562 C 22.035156 14.019531 21.804688 14.089844 21.511719 14.171875 C 20.449219 14.480469 18.699219 14.988281 16.578125 14.988281 C 13.570312 14.988281 9.808594 13.960938 6.210938 9.851562 C 5.28125 10.851562 4.550781 11.800781 4.140625 12.488281 C 1.078125 17.589844 0.0585938 23.578125 0.0117188 23.839844 C -0.03125 24.109375 0.0390625 24.378906 0.199219 24.601562 C 2.300781 27.367188 4.984375 29.648438 8.054688 31.269531 L 30.730469 43.238281 C 32.472656 44.359375 34.753906 45 37.003906 45 C 37.050781 44.996094 37.09375 44.992188 37.140625 44.988281 L 44.078125 44 C 46.808594 43.769531 50 42.328125 50 38.898438 C 49.660156 35.460938 49.21875 34.96875 49.050781 34.789062 Z M 47.910156 39.640625 C 47.410156 41.609375 44.53125 41.960938 43.859375 42.011719 L 36.929688 43 C 35.078125 42.988281 33.21875 42.460938 31.738281 41.519531 L 8.507812 29.246094 C 5.980469 27.910156 3.777344 26.035156 2.058594 23.75 C 2.28125 22.699219 2.945312 19.746094 4.269531 16.636719 C 4.273438 16.632812 4.277344 16.632812 4.28125 16.632812 C 7.691406 17.832031 10.328125 20.941406 11.558594 23.242188 C 12.941406 25.832031 14.558594 28.421875 17.109375 29.8125 L 20.671875 31.671875 C 21.300781 32.019531 22.710938 32.511719 23.449219 32.582031 C 23.621094 32.601562 23.789062 32.609375 23.941406 32.609375 C 24.140625 32.609375 24.328125 32.601562 24.519531 32.589844 L 24.660156 32.582031 C 24.859375 32.570312 25.050781 32.5625 25.25 32.5625 C 26.25 32.5625 27.230469 32.8125 28.730469 34.011719 C 29.210938 34.410156 29.578125 34.921875 30 35.511719 C 30.929688 36.8125 32.21875 38.601562 35.761719 40.441406 C 35.839844 40.480469 35.921875 40.5 36 40.5 C 36.058594 40.5 36.121094 40.492188 36.171875 40.472656 C 36.910156 40.199219 39.101562 39.5 40.238281 39.5 L 44.761719 39.5 C 45.601562 39.5 46.75 39.5 47.738281 39.171875 C 47.828125 39.140625 47.921875 39.101562 48 39.0625 C 47.988281 39.269531 47.960938 39.460938 47.910156 39.640625 Z M 47.910156 39.640625 "/>
</g>
</svg>
