<?xml version="1.0" encoding="UTF-8"?>
<svg xmlns="http://www.w3.org/2000/svg" xmlns:xlink="http://www.w3.org/1999/xlink" viewBox="0 0 24 24" width="24px" height="24px">
<g id="surface35851754">
<path style=" stroke:none;fill-rule:nonzero;fill:rgb(100%,100%,100%);fill-opacity:1;" d="M 12 2 C 10.8125 2 9.542969 3.691406 8.757812 6.363281 C 8.664062 6.683594 8.914062 7 9.242188 7 L 14.757812 7 C 15.085938 7 15.335938 6.683594 15.242188 6.363281 C 14.457031 3.691406 13.1875 2 12 2 Z M 8.066406 2.808594 C 6.269531 3.582031 4.75 4.867188 3.675781 6.480469 C 3.53125 6.699219 3.695312 7 3.960938 7 L 5.929688 7 C 6.355469 7 6.546875 6.835938 6.601562 6.613281 C 6.957031 5.132812 7.457031 3.847656 8.066406 2.808594 Z M 15.933594 2.808594 C 16.542969 3.847656 17.042969 5.136719 17.398438 6.613281 C 17.453125 6.835938 17.652344 7 17.882812 7 L 20.035156 7 C 20.300781 7 20.46875 6.699219 20.324219 6.480469 C 19.25 4.867188 17.730469 3.582031 15.933594 2.808594 Z M 2.71875 9 C 2.566406 9 2.429688 9.097656 2.386719 9.242188 C 2.136719 10.121094 2 11.046875 2 12 C 2 12.953125 2.136719 13.878906 2.386719 14.753906 C 2.429688 14.902344 2.566406 15 2.71875 15 L 5.628906 15 C 5.925781 15 6.148438 14.746094 6.121094 14.453125 C 6.042969 13.664062 6 12.847656 6 12 C 6 11.152344 6.042969 10.335938 6.121094 9.546875 C 6.148438 9.253906 5.925781 9 5.628906 9 Z M 8.648438 9 C 8.394531 9 8.175781 9.183594 8.148438 9.4375 C 8.050781 10.25 8 11.105469 8 12 C 8 12.894531 8.050781 13.75 8.148438 14.5625 C 8.175781 14.816406 8.394531 15 8.648438 15 L 15.351562 15 C 15.605469 15 15.824219 14.816406 15.855469 14.5625 C 15.949219 13.75 16 12.894531 16 12 C 16 11.105469 15.949219 10.25 15.855469 9.4375 C 15.824219 9.183594 15.605469 9 15.351562 9 Z M 18.371094 9 C 18.074219 9 17.851562 9.253906 17.878906 9.546875 C 17.957031 10.335938 18 11.152344 18 12 C 18 12.847656 17.957031 13.664062 17.878906 14.453125 C 17.851562 14.746094 18.074219 15 18.371094 15 L 21.28125 15 C 21.433594 15 21.570312 14.902344 21.613281 14.753906 C 21.863281 13.878906 22 12.953125 22 12 C 22 11.046875 21.863281 10.121094 21.613281 9.242188 C 21.570312 9.097656 21.433594 9 21.28125 9 Z M 3.964844 17 C 3.699219 17 3.53125 17.300781 3.679688 17.519531 C 4.75 19.132812 6.269531 20.417969 8.066406 21.191406 C 7.457031 20.152344 6.957031 18.863281 6.601562 17.386719 C 6.546875 17.164062 6.347656 17 6.117188 17 Z M 9.242188 17 C 8.914062 17 8.664062 17.316406 8.757812 17.636719 C 9.542969 20.308594 10.8125 22 12 22 C 13.1875 22 14.457031 20.308594 15.242188 17.636719 C 15.335938 17.316406 15.085938 17 14.757812 17 Z M 18.070312 17 C 17.644531 17 17.453125 17.164062 17.398438 17.386719 C 17.042969 18.867188 16.542969 20.152344 15.933594 21.191406 C 17.730469 20.417969 19.25 19.132812 20.320312 17.519531 C 20.46875 17.300781 20.304688 17 20.035156 17 Z M 18.070312 17 "/>
</g>
</svg>
