<?xml version="1.0" encoding="UTF-8"?>
<svg xmlns="http://www.w3.org/2000/svg" xmlns:xlink="http://www.w3.org/1999/xlink" viewBox="0 0 24 24" width="24px" height="24px">
<g id="surface925810">
<path style=" stroke:none;fill-rule:nonzero;fill:rgb(40.000001%,40.000001%,40.000001%);fill-opacity:1;" d="M 11.292969 13.707031 L 7.292969 9.707031 C 6.902344 9.316406 6.902344 8.683594 7.292969 8.292969 C 7.683594 7.902344 8.316406 7.902344 8.707031 8.292969 L 11.648438 11.234375 C 11.84375 11.429688 12.160156 11.429688 12.355469 11.234375 L 19.160156 4.425781 C 19.402344 4.183594 19.335938 3.777344 19.03125 3.617188 C 18.273438 3.222656 17.414062 3 16.5 3 C 13.605469 3 12 5.089844 12 5.089844 C 12 5.089844 10.484375 3.117188 7.742188 3.003906 C 5.902344 2.929688 4.21875 3.847656 3.109375 5.3125 C -0.75 10.417969 6.5625 16.386719 8.28125 17.988281 C 9.308594 18.949219 10.582031 20.089844 11.339844 20.761719 C 11.71875 21.101562 12.28125 21.101562 12.660156 20.761719 C 13.417969 20.089844 14.6875 18.949219 15.71875 17.988281 C 17.089844 16.714844 22 12.671875 22 8.5 C 22 7.585938 21.777344 6.726562 21.382812 5.96875 C 21.222656 5.664062 20.816406 5.597656 20.574219 5.839844 L 12.707031 13.707031 C 12.316406 14.097656 11.683594 14.097656 11.292969 13.707031 Z M 11.292969 13.707031 "/>
</g>
</svg>
