<?xml version="1.0" encoding="UTF-8"?>
<svg xmlns="http://www.w3.org/2000/svg" xmlns:xlink="http://www.w3.org/1999/xlink" viewBox="0 0 48 48" width="48px" height="48px">
<g id="surface17979113">
<path style=" stroke:none;fill-rule:nonzero;fill:rgb(50.196081%,50.196081%,50.196081%);fill-opacity:1;" d="M 24 48 C 10.746094 48 0 37.253906 0 24 C 0 10.746094 10.746094 0 24 0 C 37.253906 0 48 10.746094 48 24 C 48 37.253906 37.253906 48 24 48 Z M 24 48 "/>
<path style=" stroke:none;fill-rule:nonzero;fill:rgb(100%,100%,100%);fill-opacity:1;" d="M 18 8.800781 C 12.925781 8.800781 8.800781 12.925781 8.800781 18 L 8.800781 30 C 8.800781 35.074219 12.925781 39.199219 18 39.199219 L 30 39.199219 C 35.074219 39.199219 39.199219 35.074219 39.199219 30 L 39.199219 18 C 39.199219 12.925781 35.074219 8.800781 30 8.800781 Z M 32 14.398438 C 32.882812 14.398438 33.601562 15.117188 33.601562 16 C 33.601562 16.882812 32.882812 17.601562 32 17.601562 C 31.117188 17.601562 30.398438 16.882812 30.398438 16 C 30.398438 15.117188 31.117188 14.398438 32 14.398438 Z M 24 16 C 28.410156 16 32 19.589844 32 24 C 32 28.410156 28.410156 32 24 32 C 19.589844 32 16 28.410156 16 24 C 16 19.589844 19.589844 16 24 16 Z M 24 18.398438 C 20.90625 18.398438 18.398438 20.90625 18.398438 24 C 18.398438 27.09375 20.90625 29.601562 24 29.601562 C 27.09375 29.601562 29.601562 27.09375 29.601562 24 C 29.601562 20.90625 27.09375 18.398438 24 18.398438 Z M 24 18.398438 "/>
</g>
</svg>
