<?xml version="1.0" encoding="UTF-8"?>
<svg xmlns="http://www.w3.org/2000/svg" xmlns:xlink="http://www.w3.org/1999/xlink" viewBox="0 0 24 24" width="24px" height="24px">
<g id="surface908497">
<path style=" stroke:none;fill-rule:nonzero;fill:rgb(40.000001%,40.000001%,40.000001%);fill-opacity:1;" d="M 17.023438 2.339844 L 16.636719 1.902344 L 16.070312 2.019531 C 15.710938 2.097656 7.265625 3.898438 3.925781 8.90625 C 3.109375 10.273438 3 11.523438 3 12.5625 C 3 15.074219 4.632812 17.234375 6.554688 18.296875 C 5.605469 19.058594 4.617188 19.675781 3.628906 20.070312 L 4.371094 21.929688 C 9.722656 19.785156 14.976562 12.40625 14.992188 7.011719 L 15 7 C 15 15 12 19 12 19 C 12.007812 19.007812 12.015625 19.011719 12.023438 19.019531 L 11.242188 19.84375 C 12.433594 20.972656 13.757812 20.992188 14.308594 21 C 17.695312 20.863281 21.074219 18.140625 20.996094 12.363281 C 20.964844 9.660156 19.898438 5.605469 17.023438 2.339844 Z M 17.023438 2.339844 "/>
</g>
</svg>
