<?xml version="1.0" encoding="UTF-8"?>
<svg xmlns="http://www.w3.org/2000/svg" xmlns:xlink="http://www.w3.org/1999/xlink" viewBox="0 0 48 48" width="48px" height="48px">
<g id="surface17983220">
<path style=" stroke:none;fill-rule:nonzero;fill:rgb(50.196081%,50.196081%,50.196081%);fill-opacity:1;" d="M 24 48 C 10.746094 48 0 37.253906 0 24 C 0 10.746094 10.746094 0 24 0 C 37.253906 0 48 10.746094 48 24 C 48 37.253906 37.253906 48 24 48 Z M 24 48 "/>
<path style=" stroke:none;fill-rule:nonzero;fill:rgb(100%,100%,100%);fill-opacity:1;" d="M 36 12 L 12 12 C 10.34375 12 9 13.34375 9 15 L 9 33 C 9 34.65625 10.34375 36 12 36 L 36 36 C 37.65625 36 39 34.65625 39 33 L 39 15 C 39 13.34375 37.65625 12 36 12 Z M 35.402344 18.375 L 24.796875 25.003906 C 24.308594 25.308594 23.691406 25.308594 23.203125 25.003906 L 12.597656 18.375 C 12.226562 18.140625 12 17.734375 12 17.296875 C 12 16.296875 13.097656 15.6875 13.945312 16.214844 L 24 22.5 L 34.054688 16.214844 C 34.902344 15.6875 36 16.296875 36 17.296875 C 36 17.734375 35.773438 18.140625 35.402344 18.375 Z M 35.402344 18.375 "/>
</g>
</svg>
