<?xml version="1.0" encoding="UTF-8"?>
<svg xmlns="http://www.w3.org/2000/svg" xmlns:xlink="http://www.w3.org/1999/xlink" viewBox="0 0 50 50" width="50px" height="50px">
<g id="surface21810746">
<path style=" stroke:none;fill-rule:nonzero;fill:rgb(100%,100%,100%);fill-opacity:1;" d="M 25 1.996094 C 24.84375 1.996094 24.683594 2.035156 24.539062 2.109375 L 3.539062 13.109375 C 3.210938 13.289062 3 13.628906 3 14 L 3 16 L 47 16 L 47 14 C 47 13.628906 46.789062 13.289062 46.460938 13.109375 L 25.460938 2.109375 C 25.316406 2.035156 25.15625 1.996094 25 1.996094 Z M 5 18 L 5 19.402344 C 5 20.652344 5.839844 21.667969 7 21.929688 L 7 38 L 15 38 L 15 21.929688 C 16.160156 21.667969 17 20.652344 17 19.402344 L 17 18 Z M 19 18 L 19 19.402344 C 19 20.652344 19.839844 21.667969 21 21.929688 L 21 38 L 29 38 L 29 21.929688 C 30.160156 21.667969 31 20.652344 31 19.402344 L 31 18 Z M 33 18 L 33 19.402344 C 33 20.652344 33.839844 21.667969 35 21.929688 L 35 38 L 43 38 L 43 21.929688 C 44.160156 21.667969 45 20.652344 45 19.402344 L 45 18 Z M 4 40 C 3.558594 40 3.070312 40.160156 2.722656 40.449219 C 2.261719 40.839844 2 41.417969 2 42.027344 L 2 44.777344 C 2 46.019531 2.917969 47 4.101562 47 L 45.800781 47 C 46.960938 47 47.902344 46.050781 47.902344 44.878906 L 47.902344 42.128906 C 47.902344 40.960938 46.960938 40.007812 45.800781 40.007812 C 45.800781 40.007812 4.078125 40 4 40 Z M 4 40 "/>
</g>
</svg>
