<?xml version="1.0" encoding="UTF-8"?>
<svg xmlns="http://www.w3.org/2000/svg" xmlns:xlink="http://www.w3.org/1999/xlink" viewBox="0 0 24 24" width="24px" height="24px">
<g id="surface34021842">
<path style=" stroke:none;fill-rule:nonzero;fill:rgb(100%,100%,100%);fill-opacity:1;" d="M 13 2 C 11.894531 2 11 2.894531 11 4 C 11 5.105469 11.894531 6 13 6 C 14.105469 6 15 5.105469 15 4 C 15 2.894531 14.105469 2 13 2 Z M 10.765625 7 L 6.183594 9.292969 L 5.054688 12.683594 L 6.949219 13.316406 L 7.816406 10.710938 L 9.589844 9.824219 L 7.015625 22 L 9.058594 22 L 10.441406 15.472656 C 10.921875 16.042969 11.652344 16.960938 12 17.335938 L 12 22 L 14 22 L 14 16.699219 L 12.824219 14.9375 L 13.65625 11.441406 C 13.941406 11.945312 14.285156 12.378906 14.679688 12.734375 C 15.605469 13.5625 16.753906 14 18 14 L 18 12 C 17.230469 12 16.582031 11.753906 16.015625 11.246094 C 15.507812 10.792969 15.132812 10.089844 14.902344 9.164062 C 14.472656 7.449219 12.816406 7 12 7 Z M 10.765625 7 "/>
</g>
</svg>
